<?xml version="1.0" encoding="UTF-8"?>
<svg xmlns="http://www.w3.org/2000/svg" xmlns:xlink="http://www.w3.org/1999/xlink" width="40pt" height="40pt" viewBox="0 0 40 40" version="1.1">
<g id="surface187683">
<path style=" stroke:none;fill-rule:nonzero;fill:rgb(0.784314%,46.666667%,74.117647%);fill-opacity:1;" d="M 34.167969 4.167969 L 5.832031 4.167969 L 8.332031 32.5 L 20 35.832031 L 31.667969 32.5 Z M 34.167969 4.167969 "/>
<path style=" stroke:none;fill-rule:nonzero;fill:rgb(1.176471%,60.784314%,89.803922%);fill-opacity:1;" d="M 20 6.667969 L 20 33.25 L 29.332031 30.582031 L 31.417969 6.667969 Z M 20 6.667969 "/>
<path style=" stroke:none;fill-rule:nonzero;fill:rgb(100%,100%,100%);fill-opacity:1;" d="M 27.582031 10.832031 L 20 10.832031 L 20 14.167969 L 24.082031 14.167969 L 23.832031 17.5 L 20 17.5 L 20 20.832031 L 23.667969 20.832031 L 23.417969 24.582031 L 20 25.75 L 20 29.25 L 26.582031 27.082031 L 27.167969 17.5 Z M 27.582031 10.832031 "/>
<path style=" stroke:none;fill-rule:nonzero;fill:rgb(93.333333%,93.333333%,93.333333%);fill-opacity:1;" d="M 20 10.832031 L 20 14.167969 L 12.582031 14.167969 L 12.332031 10.832031 Z M 16.167969 17.5 L 16.332031 20.832031 L 20 20.832031 L 20 17.5 Z M 16.5 22.5 L 13.167969 22.5 L 13.417969 27.082031 L 20 29.25 L 20 25.75 L 16.582031 24.582031 Z M 16.5 22.5 "/>
</g>
</svg>
