<?xml version="1.0" encoding="UTF-8" standalone="yes"?>
<svg xmlns="http://www.w3.org/2000/svg" xmlns:xlink="http://www.w3.org/1999/xlink" width="40pt" height="40pt" viewBox="0 0 40 40" version="1.1" fill="#000000">
  <g id="surface189130">
    <path style=" stroke:none;fill-rule:nonzero;fill:#000000;fill-opacity:1;" d="M 21.601562 37.601562 C 20.226562 37.601562 18.773438 37.460938 17.28125 37.1875 C 17.078125 37.148438 16.882812 37.085938 16.6875 37.023438 L 16.53125 36.972656 C 16.523438 36.972656 16.472656 36.957031 16.425781 36.941406 C 16.144531 36.855469 15.925781 36.785156 15.703125 36.707031 C 15.6875 36.703125 15.601562 36.671875 15.589844 36.664062 C 15.421875 36.605469 15.222656 36.527344 15.027344 36.453125 C 15.019531 36.453125 14.972656 36.433594 14.929688 36.414062 C 14.660156 36.308594 14.449219 36.21875 14.238281 36.128906 C 14.238281 36.128906 14.164062 36.09375 14.160156 36.09375 C 13.933594 35.988281 13.746094 35.902344 13.566406 35.8125 C 13.550781 35.804688 13.421875 35.742188 13.40625 35.734375 C 13.226562 35.644531 13.105469 35.582031 12.996094 35.519531 C 12.917969 35.480469 12.828125 35.4375 12.734375 35.386719 C 12.585938 35.304688 12.421875 35.210938 12.261719 35.117188 L 12.125 35.039062 C 11.871094 34.886719 11.660156 34.757812 11.449219 34.621094 L 10.875 34.238281 C 10.859375 34.226562 10.835938 34.210938 10.8125 34.191406 C 10.757812 34.15625 10.707031 34.121094 10.65625 34.082031 C 10.507812 33.972656 10.375 33.878906 10.246094 33.78125 L 9.480469 33.179688 C 9.332031 33.058594 9.183594 32.929688 9.035156 32.800781 C 9.027344 32.792969 8.914062 32.695312 8.90625 32.6875 C 8.789062 32.589844 8.636719 32.441406 8.484375 32.300781 L 8.359375 32.183594 C 8.359375 32.183594 8.300781 32.128906 8.300781 32.128906 C 8.175781 32.011719 8.054688 31.886719 7.9375 31.765625 L 7.796875 31.625 C 7.644531 31.464844 7.5 31.3125 7.359375 31.160156 C 7.335938 31.136719 7.316406 31.109375 7.296875 31.089844 C 7.148438 30.921875 7 30.753906 6.863281 30.585938 L 6.796875 30.511719 C 6.792969 30.507812 6.742188 30.445312 6.738281 30.441406 L 6.28125 29.863281 C 6.179688 29.734375 6.0625 29.578125 5.949219 29.417969 L 5.898438 29.347656 C 5.894531 29.339844 5.886719 29.332031 5.882812 29.328125 C 5.742188 29.140625 5.617188 28.949219 5.492188 28.753906 C 5.46875 28.722656 5.433594 28.667969 5.394531 28.609375 L 5.269531 28.40625 C 5.214844 28.324219 5.164062 28.242188 5.113281 28.15625 C 5.097656 28.136719 5.0625 28.074219 5.023438 28.015625 L 4.765625 27.574219 C 4.699219 27.457031 4.664062 27.386719 4.625 27.308594 C 4.609375 27.289062 4.574219 27.226562 4.546875 27.167969 C 4.53125 27.144531 4.484375 27.054688 4.441406 26.960938 L 4.414062 26.910156 C 4.367188 26.820312 4.320312 26.730469 4.277344 26.636719 C 2.03125 22.113281 1.398438 14.71875 4.667969 9.960938 C 4.796875 9.757812 5.9375 7.976562 7.464844 6.605469 C 7.769531 6.332031 8.234375 6.332031 8.539062 6.609375 C 8.84375 6.886719 8.886719 7.347656 8.644531 7.675781 C 6.21875 10.953125 7.03125 19.902344 10.144531 24.191406 C 10.257812 24.351562 10.375 24.507812 10.492188 24.660156 C 10.542969 24.726562 10.589844 24.785156 10.628906 24.84375 L 10.96875 25.257812 C 11.152344 25.472656 11.289062 25.636719 11.433594 25.792969 C 11.589844 25.964844 11.722656 26.109375 11.863281 26.253906 L 12.429688 26.8125 C 12.621094 26.996094 12.78125 27.144531 12.941406 27.289062 C 12.964844 27.304688 12.980469 27.320312 13 27.335938 C 13.140625 27.460938 13.28125 27.582031 13.429688 27.703125 L 13.605469 27.84375 C 13.695312 27.921875 13.796875 28 13.898438 28.078125 C 14.007812 28.160156 14.078125 28.214844 14.144531 28.265625 C 14.253906 28.347656 14.386719 28.445312 14.523438 28.539062 L 14.601562 28.597656 C 14.796875 28.734375 14.933594 28.824219 15.070312 28.914062 C 15.144531 28.964844 15.1875 28.996094 15.234375 29.023438 C 15.433594 29.15625 15.636719 29.277344 15.832031 29.394531 C 15.898438 29.429688 15.96875 29.472656 16.035156 29.515625 L 16.6875 29.867188 C 16.832031 29.941406 16.941406 30.003906 17.054688 30.058594 C 17.066406 30.0625 17.199219 30.125 17.207031 30.132812 C 17.371094 30.210938 17.535156 30.289062 17.703125 30.367188 L 17.8125 30.410156 C 18 30.496094 18.191406 30.578125 18.386719 30.65625 L 18.5625 30.722656 C 18.714844 30.785156 18.890625 30.851562 19.066406 30.914062 C 19.066406 30.914062 19.15625 30.945312 19.160156 30.945312 C 19.355469 31.015625 19.558594 31.082031 19.765625 31.144531 L 20.0625 31.234375 C 20.21875 31.285156 20.371094 31.332031 20.527344 31.367188 C 26.875 32.824219 32.421875 31.386719 35.363281 27.515625 C 35.605469 27.199219 36.042969 27.109375 36.390625 27.300781 C 36.738281 27.492188 36.890625 27.914062 36.75 28.285156 C 36.710938 28.378906 33.0625 37.597656 21.601562 37.601562 Z M 21.601562 37.601562 "/>
    <path style=" stroke:none;fill-rule:nonzero;fill:#000000;fill-opacity:1;" d="M 26.0625 26.398438 C 25.058594 26.398438 24 26.308594 22.910156 26.125 C 22.6875 26.089844 22.484375 26.019531 22.308594 25.960938 L 21.957031 25.84375 C 21.804688 25.792969 21.65625 25.738281 21.503906 25.6875 C 21.496094 25.683594 21.417969 25.65625 21.410156 25.652344 L 21.320312 25.617188 C 21.113281 25.539062 20.945312 25.46875 20.777344 25.394531 L 20.523438 25.285156 C 20.359375 25.207031 20.195312 25.132812 20.03125 25.050781 C 20.019531 25.042969 19.964844 25.019531 19.953125 25.011719 L 19.707031 24.882812 C 19.597656 24.824219 19.554688 24.800781 19.507812 24.773438 C 19.410156 24.722656 19.257812 24.636719 19.113281 24.550781 C 18.890625 24.421875 18.734375 24.324219 18.574219 24.21875 L 18.488281 24.164062 L 18.410156 24.109375 C 18.335938 24.0625 18.261719 24.011719 18.191406 23.960938 C 18.164062 23.945312 18.140625 23.933594 18.121094 23.914062 C 17.90625 23.761719 17.695312 23.605469 17.492188 23.441406 L 17.417969 23.386719 C 17.152344 23.179688 16.953125 23.011719 16.757812 22.835938 C 16.738281 22.824219 16.722656 22.808594 16.707031 22.792969 C 16.707031 22.792969 16.707031 22.792969 16.707031 22.789062 C 16.53125 22.632812 16.363281 22.472656 16.195312 22.3125 C 16.191406 22.308594 16.132812 22.25 16.132812 22.246094 L 16.054688 22.167969 C 15.890625 22.003906 15.726562 21.835938 15.570312 21.660156 C 15.128906 21.261719 14.78125 20.746094 14.472656 20.292969 L 14.363281 20.136719 C 13.996094 19.605469 13.65625 19.027344 13.351562 18.421875 C 11.417969 14.59375 11.582031 10.0625 13.769531 6.878906 C 13.777344 6.867188 13.785156 6.855469 13.792969 6.84375 C 13.84375 6.777344 15.082031 5.167969 16.292969 4.179688 C 16.59375 3.933594 17.023438 3.9375 17.316406 4.191406 C 17.613281 4.441406 17.683594 4.867188 17.492188 5.199219 C 15.996094 7.78125 15.503906 10.613281 16.167969 12.78125 C 16.882812 15.140625 18.410156 17.339844 20.46875 18.988281 L 20.558594 19.058594 C 20.78125 19.234375 20.972656 19.378906 21.167969 19.515625 C 21.253906 19.574219 21.34375 19.632812 21.433594 19.691406 C 21.441406 19.699219 21.503906 19.738281 21.511719 19.742188 L 21.585938 19.792969 C 21.695312 19.867188 21.808594 19.9375 21.925781 20.003906 L 22.003906 20.054688 L 22.082031 20.097656 C 22.21875 20.179688 22.3125 20.234375 22.414062 20.289062 L 22.871094 20.527344 C 23.035156 20.605469 23.222656 20.695312 23.410156 20.777344 L 23.515625 20.824219 C 23.671875 20.894531 23.800781 20.941406 23.929688 20.996094 L 24.152344 21.078125 C 24.308594 21.136719 24.445312 21.1875 24.582031 21.230469 C 24.648438 21.253906 24.6875 21.265625 24.726562 21.277344 C 24.964844 21.355469 25.160156 21.414062 25.359375 21.464844 C 29.667969 22.597656 33.898438 21.21875 36.136719 17.949219 C 36.359375 17.625 36.785156 17.507812 37.140625 17.675781 C 37.496094 17.84375 37.675781 18.246094 37.566406 18.625 C 37.542969 18.699219 35.246094 26.203125 26.414062 26.394531 C 26.300781 26.398438 26.183594 26.398438 26.0625 26.398438 Z M 26.0625 26.398438 "/>
    <path style=" stroke:none;fill-rule:nonzero;fill:#000000;fill-opacity:1;" d="M 29.871094 16.800781 C 29.773438 16.800781 29.675781 16.796875 29.574219 16.796875 C 28.992188 16.777344 28.375 16.703125 27.742188 16.578125 C 27.613281 16.554688 27.488281 16.511719 27.363281 16.472656 L 27.273438 16.441406 C 27.257812 16.4375 27.140625 16.398438 27.125 16.394531 C 26.988281 16.34375 26.90625 16.316406 26.828125 16.285156 C 24.414062 15.382812 22.390625 13.441406 21.417969 11.101562 C 20.996094 10.09375 20.789062 9.046875 20.800781 7.992188 C 20.8125 6.582031 21.226562 5.226562 22 4.070312 C 22.007812 4.058594 22.015625 4.046875 22.023438 4.035156 C 22.175781 3.835938 22.957031 2.824219 23.644531 2.484375 C 23.964844 2.324219 24.351562 2.398438 24.59375 2.664062 C 24.835938 2.929688 24.867188 3.320312 24.675781 3.625 C 23.25 5.898438 24.207031 9.832031 26.644531 11.722656 C 27.058594 12.042969 27.511719 12.328125 27.996094 12.566406 C 28.242188 12.6875 28.503906 12.796875 28.765625 12.890625 C 28.964844 12.964844 29.191406 13.042969 29.398438 13.09375 C 32.167969 13.78125 34.167969 13.257812 35.339844 11.539062 C 35.339844 11.535156 35.339844 11.535156 35.339844 11.535156 C 35.589844 11.171875 36.085938 11.078125 36.453125 11.328125 C 36.816406 11.574219 36.910156 12.074219 36.664062 12.4375 C 36.660156 12.4375 36.660156 12.441406 36.660156 12.441406 C 36.625 12.492188 36.582031 12.574219 36.527344 12.675781 C 35.960938 13.707031 34.261719 16.800781 29.871094 16.800781 Z M 29.871094 16.800781 "/>
  </g>
</svg>