<?xml version="1.0" encoding="UTF-8"?>
<svg xmlns="http://www.w3.org/2000/svg" xmlns:xlink="http://www.w3.org/1999/xlink" width="40pt" height="40pt" viewBox="0 0 40 40" version="1.1">
<g id="surface188907">
<path style=" stroke:none;fill-rule:nonzero;fill:rgb(100%,83.921569%,0%);fill-opacity:1;" d="M 5 35 L 5 5 L 35 5 L 35 35 Z M 5 35 "/>
<path style=" stroke:none;fill-rule:nonzero;fill:rgb(0%,0%,0.392157%);fill-opacity:1;" d="M 24.613281 27.457031 C 25.191406 28.390625 25.816406 29.289062 27.144531 29.289062 C 28.261719 29.289062 28.847656 28.734375 28.847656 27.96875 C 28.847656 27.050781 28.242188 26.726562 27.015625 26.191406 L 26.339844 25.90625 C 24.402344 25.082031 23.109375 24.050781 23.109375 21.871094 C 23.109375 19.863281 24.648438 18.335938 27.050781 18.335938 C 28.761719 18.335938 29.988281 18.925781 30.875 20.476562 L 28.78125 21.816406 C 28.320312 20.996094 27.824219 20.671875 27.050781 20.671875 C 26.261719 20.671875 25.761719 21.167969 25.761719 21.816406 C 25.761719 22.621094 26.261719 22.945312 27.417969 23.441406 L 28.089844 23.730469 C 30.375 24.703125 31.667969 25.699219 31.667969 27.9375 C 31.667969 30.347656 29.761719 31.667969 27.207031 31.667969 C 24.710938 31.667969 23.289062 30.414062 22.5 28.859375 Z M 14.960938 27.523438 C 15.382812 28.277344 16.023438 28.859375 16.945312 28.859375 C 17.824219 28.859375 18.332031 28.511719 18.332031 27.15625 L 18.332031 18.332031 L 21.109375 18.332031 L 21.109375 27.585938 C 21.109375 30.390625 19.484375 31.667969 17.105469 31.667969 C 14.960938 31.667969 13.410156 30.210938 12.777344 28.859375 Z M 14.960938 27.523438 "/>
</g>
</svg>
