<?xml version="1.0" encoding="UTF-8"?>
<svg xmlns="http://www.w3.org/2000/svg" xmlns:xlink="http://www.w3.org/1999/xlink" width="40pt" height="40pt" viewBox="0 0 40 40" version="1.1">
<g id="surface189080">
<path style=" stroke:none;fill-rule:nonzero;fill:rgb(21.960784%,55.686275%,23.529412%);fill-opacity:1;" d="M 14.335938 15.933594 L 10.246094 18.199219 C 10.09375 18.28125 10 18.4375 10 18.609375 L 10 23.136719 C 10 23.304688 10.09375 23.460938 10.246094 23.546875 L 14.335938 25.808594 C 14.488281 25.894531 14.679688 25.894531 14.832031 25.808594 L 18.921875 23.546875 C 19.074219 23.460938 19.167969 23.304688 19.167969 23.136719 L 19.167969 18.609375 C 19.167969 18.4375 19.074219 18.28125 18.917969 18.199219 L 14.832031 15.933594 C 14.753906 15.890625 14.667969 15.871094 14.582031 15.871094 C 14.496094 15.871094 14.414062 15.890625 14.335938 15.933594 M 35.375 20.011719 L 34.695312 20.386719 C 34.667969 20.402344 34.652344 20.425781 34.652344 20.457031 L 34.652344 21.210938 C 34.652344 21.238281 34.667969 21.265625 34.695312 21.277344 L 35.375 21.65625 C 35.402344 21.671875 35.433594 21.671875 35.457031 21.65625 L 36.140625 21.277344 C 36.164062 21.265625 36.179688 21.238281 36.179688 21.210938 L 36.179688 20.457031 C 36.179688 20.425781 36.164062 20.402344 36.140625 20.386719 L 35.457031 20.011719 C 35.445312 20.003906 35.429688 20 35.417969 20 C 35.402344 20 35.386719 20.003906 35.375 20.011719 "/>
<path style=" stroke:none;fill-rule:nonzero;fill:rgb(21.568627%,27.843137%,30.980392%);fill-opacity:1;" d="M 29.792969 11.136719 L 27.800781 10.027344 C 27.738281 9.992188 27.664062 9.992188 27.601562 10.027344 C 27.539062 10.066406 27.5 10.128906 27.5 10.203125 L 27.5 16.914062 L 25.664062 15.898438 C 25.585938 15.855469 25.5 15.832031 25.417969 15.832031 C 25.332031 15.832031 25.246094 15.855469 25.167969 15.898438 L 25.171875 15.898438 L 21.082031 18.160156 C 20.925781 18.242188 20.832031 18.398438 20.832031 18.566406 L 20.832031 23.097656 C 20.832031 23.265625 20.925781 23.421875 21.082031 23.503906 L 25.171875 25.769531 C 25.324219 25.855469 25.511719 25.855469 25.664062 25.769531 L 29.753906 23.503906 C 29.90625 23.421875 30 23.265625 30 23.097656 L 30 11.488281 C 30 11.34375 29.921875 11.207031 29.792969 11.136719 Z M 27.386719 22.046875 L 25.53125 23.078125 C 25.460938 23.117188 25.375 23.117188 25.304688 23.078125 L 23.445312 22.046875 C 23.375 22.011719 23.332031 21.9375 23.332031 21.863281 L 23.332031 19.804688 C 23.332031 19.726562 23.375 19.65625 23.445312 19.617188 L 25.304688 18.589844 C 25.339844 18.570312 25.378906 18.558594 25.417969 18.558594 C 25.457031 18.558594 25.496094 18.570312 25.527344 18.589844 L 27.386719 19.617188 C 27.457031 19.65625 27.5 19.726562 27.5 19.804688 L 27.5 21.863281 C 27.5 21.9375 27.457031 22.011719 27.386719 22.046875 Z M 27.386719 22.046875 "/>
<path style=" stroke:none;fill-rule:nonzero;fill:rgb(18.039216%,49.019608%,19.607843%);fill-opacity:1;" d="M 14.335938 15.933594 L 10 23.136719 C 10 23.304688 10.09375 23.460938 10.246094 23.546875 L 14.335938 25.808594 C 14.488281 25.894531 14.679688 25.894531 14.832031 25.808594 L 19.167969 18.609375 C 19.167969 18.4375 19.074219 18.28125 18.917969 18.199219 L 14.832031 15.933594 C 14.753906 15.890625 14.667969 15.871094 14.582031 15.871094 C 14.496094 15.871094 14.414062 15.890625 14.335938 15.933594 "/>
<path style=" stroke:none;fill-rule:nonzero;fill:rgb(29.803922%,68.627451%,31.372549%);fill-opacity:1;" d="M 14.335938 15.933594 L 10.246094 18.199219 C 10.09375 18.28125 10 18.4375 10 18.609375 L 14.335938 25.808594 C 14.488281 25.894531 14.679688 25.894531 14.832031 25.808594 L 18.921875 23.546875 C 19.074219 23.460938 19.167969 23.304688 19.167969 23.136719 L 14.832031 15.933594 C 14.753906 15.890625 14.667969 15.871094 14.582031 15.871094 C 14.496094 15.871094 14.414062 15.890625 14.335938 15.933594 "/>
<path style=" stroke:none;fill-rule:nonzero;fill:rgb(21.568627%,27.843137%,30.980392%);fill-opacity:1;" d="M 39.753906 18.160156 L 35.664062 15.898438 C 35.585938 15.855469 35.5 15.832031 35.417969 15.832031 C 35.332031 15.832031 35.246094 15.855469 35.167969 15.898438 L 35.171875 15.898438 L 31.082031 18.160156 C 30.929688 18.242188 30.832031 18.402344 30.832031 18.578125 L 30.832031 23.085938 C 30.832031 23.261719 30.929688 23.421875 31.082031 23.507812 L 35.171875 25.769531 C 35.324219 25.855469 35.511719 25.855469 35.664062 25.769531 L 37.550781 24.726562 C 37.722656 24.628906 37.722656 24.382812 37.550781 24.289062 L 33.445312 22.050781 C 33.375 22.011719 33.332031 21.9375 33.332031 21.859375 L 33.332031 19.804688 C 33.332031 19.726562 33.375 19.65625 33.441406 19.621094 L 35.304688 18.589844 C 35.339844 18.570312 35.375 18.5625 35.414062 18.5625 C 35.453125 18.5625 35.492188 18.570312 35.527344 18.589844 L 37.390625 19.621094 C 37.457031 19.65625 37.5 19.726562 37.5 19.804688 L 37.5 21.480469 C 37.5 21.554688 37.539062 21.621094 37.601562 21.65625 C 37.664062 21.691406 37.738281 21.691406 37.800781 21.65625 L 39.800781 20.496094 C 39.921875 20.421875 40 20.289062 40 20.148438 L 40 18.578125 C 40 18.402344 39.90625 18.242188 39.753906 18.160156 Z M 8.917969 18.160156 L 4.832031 15.898438 C 4.753906 15.855469 4.667969 15.832031 4.582031 15.832031 C 4.5 15.832031 4.414062 15.855469 4.335938 15.898438 L 0.246094 18.160156 C 0.09375 18.242188 0 18.402344 0 18.578125 L 0 24.800781 C 0 24.871094 0.0390625 24.9375 0.101562 24.972656 C 0.164062 25.007812 0.238281 25.007812 0.300781 24.972656 L 2.300781 23.8125 C 2.425781 23.738281 2.5 23.609375 2.5 23.464844 L 2.5 19.804688 C 2.5 19.726562 2.542969 19.65625 2.609375 19.621094 L 4.472656 18.589844 C 4.503906 18.570312 4.542969 18.5625 4.582031 18.5625 C 4.621094 18.5625 4.660156 18.570312 4.695312 18.589844 L 6.558594 19.621094 C 6.625 19.65625 6.667969 19.726562 6.667969 19.804688 L 6.667969 23.464844 C 6.667969 23.609375 6.742188 23.742188 6.867188 23.8125 L 8.863281 24.972656 C 8.925781 25.007812 9.003906 25.007812 9.066406 24.972656 C 9.128906 24.9375 9.167969 24.871094 9.167969 24.800781 L 9.167969 18.578125 C 9.167969 18.402344 9.070312 18.242188 8.917969 18.160156 Z M 8.917969 18.160156 "/>
</g>
</svg>
